<svg xmlns="http://www.w3.org/2000/svg" viewBox="0 0 64 64"><g data-name="Hide"><path fill="#222" d="M32 48.27A16.27 16.27 0 0 1 20.07 20.94a2 2 0 0 1 1.5-.64 2 2 0 0 1 1.48.69L41.7 42.37a2 2 0 0 1 .48 1.55 2 2 0 0 1-.84 1.4A16.18 16.18 0 0 1 32 48.27zM21.63 25.44A12.28 12.28 0 0 0 37.09 43.17zM45.22 39.38a2.06 2.06 0 0 1-.76-.15 2 2 0 0 1-1.09-2.61 12.07 12.07 0 0 0 .9-4.62A12.28 12.28 0 0 0 32 19.73a12.15 12.15 0 0 0-3 .38 2 2 0 0 1-1-3.88A16.29 16.29 0 0 1 48.27 32a16.07 16.07 0 0 1-1.2 6.14A2 2 0 0 1 45.22 39.38z"/><path fill="#222" d="M39.13 29.81a2 2 0 0 1-1.72-1 6.27 6.27 0 0 0-4.32-3 2 2 0 0 1 .68-3.94 10.21 10.21 0 0 1 7.08 4.9 2 2 0 0 1-1.72 3zM3.29 34a2 2 0 0 1-1.46-3.37c.33-.34.67-.72 1-1.12C6.09 26 11 20.72 17.81 17.26a2 2 0 1 1 1.8 3.57C13.41 24 8.84 28.93 5.81 32.22L4.75 33.37A2 2 0 0 1 3.29 34z"/><path fill="#222" d="M60.71 34a2 2 0 0 1-1.46-.63l-1.07-1.16C53.23 26.84 45 17.84 32 17.84a26.5 26.5 0 0 0-4.79.43 2 2 0 0 1-2.33-1.59 2 2 0 0 1 1.59-2.34 30.09 30.09 0 0 1 5.53-.5C46.71 13.84 56.09 24 61.13 29.5c.36.41.71.78 1 1.13A2 2 0 0 1 60.71 34zM32 50.16C17.29 50.16 7.91 40 2.87 34.5c-.36-.41-.71-.78-1-1.13a2 2 0 0 1 2.92-2.74l1.07 1.16C10.77 37.16 19 46.16 32 46.16a26.69 26.69 0 0 0 9.68-1.81 2 2 0 1 1 1.44 3.73A30.64 30.64 0 0 1 32 50.16z"/><path fill="#222" d="M49.58 44.38a2 2 0 0 1-1.14-3.64 59.68 59.68 0 0 0 9.78-9l1-1.12a2 2 0 0 1 2.92 2.74c-.32.33-.65.7-1 1.09A62.7 62.7 0 0 1 50.72 44 2 2 0 0 1 49.58 44.38zM49.59 56.47a2 2 0 0 1-1.51-.69L8.9 10.84a2 2 0 1 1 3-2.62L51.1 53.16a2 2 0 0 1-1.51 3.31z"/></g></svg>